<svg width="15" height="12" viewBox="0 0 15 12" fill="none" xmlns="http://www.w3.org/2000/svg">
<path d="M2.44163 11V6.37355C2.44163 6.28969 2.45813 6.20664 2.49026 6.12918C2.52238 6.05172 2.56947 5.98138 2.62881 5.92217C2.68815 5.86295 2.75857 5.81602 2.83606 5.7841C2.91355 5.75218 2.99657 5.73587 3.08036 5.73612H4.00261C4.0864 5.73587 4.16943 5.75218 4.24691 5.7841C4.3244 5.81602 4.39482 5.86295 4.45416 5.92217C4.5135 5.98138 4.56059 6.05172 4.59272 6.12918C4.62484 6.20664 4.64134 6.28969 4.64134 6.37355V11M6.47634 11V3.88633C6.47634 3.71678 6.54364 3.55415 6.66343 3.43425C6.78322 3.31436 6.94571 3.247 7.11512 3.247H8.03922C8.12301 3.247 8.20599 3.26357 8.28338 3.29572C8.36077 3.32787 8.43105 3.37496 8.49022 3.43435C8.54938 3.49374 8.59627 3.56427 8.62817 3.64182C8.66006 3.71938 8.67635 3.80247 8.67611 3.88633V11M10.2541 11V1.63928C10.2541 1.46973 10.3214 1.30714 10.4412 1.18725C10.5609 1.06736 10.7234 1 10.8928 1H11.8169C11.9864 1 12.1488 1.06736 12.2686 1.18725C12.3884 1.30714 12.4557 1.46973 12.4557 1.63928V11M13.8447 11H0.844727" stroke="#EC888D" stroke-linecap="round" stroke-linejoin="round"/>
</svg>
